<svg id="visual" viewBox="0 0 900 600" width="900" height="600" xmlns="http://www.w3.org/2000/svg" xmlns:xlink="http://www.w3.org/1999/xlink" version="1.1"><g stroke-width="1" stroke-linejoin="bevel"><path d="M453 277L489 211L397 196Z" fill="#297ea6" stroke="#FFFFFF"></path><path d="M489 211L430 141L397 196Z" fill="#297ea6" stroke="#FFFFFF"></path><path d="M397 196L350 282L453 277Z" fill="#1d4e6b" stroke="#FFFFFF"></path><path d="M397 196L322 247L350 282Z" fill="#297ea6" stroke="#FFFFFF"></path><path d="M265 257L322 247L236 122Z" fill="#112e42" stroke="#FFFFFF"></path><path d="M523 406L553 305L453 277Z" fill="#205a7a" stroke="#FFFFFF"></path><path d="M453 277L553 305L489 211Z" fill="#0c2435" stroke="#FFFFFF"></path><path d="M553 305L596 215L489 211Z" fill="#205a7a" stroke="#FFFFFF"></path><path d="M489 211L474 54L430 141Z" fill="#205a7a" stroke="#FFFFFF"></path><path d="M633 78L474 54L489 211Z" fill="#112e42" stroke="#FFFFFF"></path><path d="M236 122L322 247L397 196Z" fill="#246688" stroke="#FFFFFF"></path><path d="M322 247L265 257L350 282Z" fill="#00101c" stroke="#FFFFFF"></path><path d="M302 50L397 196L430 141Z" fill="#277297" stroke="#FFFFFF"></path><path d="M272 405L368 398L350 282Z" fill="#205a7a" stroke="#FFFFFF"></path><path d="M350 282L368 398L453 277Z" fill="#15384f" stroke="#FFFFFF"></path><path d="M368 398L523 406L453 277Z" fill="#112e42" stroke="#FFFFFF"></path><path d="M553 305L677 326L596 215Z" fill="#246688" stroke="#FFFFFF"></path><path d="M393 0L302 50L430 141Z" fill="#0c2435" stroke="#FFFFFF"></path><path d="M302 50L236 122L397 196Z" fill="#277297" stroke="#FFFFFF"></path><path d="M474 54L393 0L430 141Z" fill="#297ea6" stroke="#FFFFFF"></path><path d="M368 398L414 459L523 406Z" fill="#246688" stroke="#FFFFFF"></path><path d="M393 0L350 0L302 50Z" fill="#297ea6" stroke="#FFFFFF"></path><path d="M596 215L633 78L489 211Z" fill="#19435d" stroke="#FFFFFF"></path><path d="M474 54L545 0L393 0Z" fill="#081a28" stroke="#FFFFFF"></path><path d="M265 257L272 405L350 282Z" fill="#112e42" stroke="#FFFFFF"></path><path d="M368 398L280 451L414 459Z" fill="#277297" stroke="#FFFFFF"></path><path d="M207 345L272 405L265 257Z" fill="#15384f" stroke="#FFFFFF"></path><path d="M633 78L545 0L474 54Z" fill="#205a7a" stroke="#FFFFFF"></path><path d="M622 473L629 396L523 406Z" fill="#112e42" stroke="#FFFFFF"></path><path d="M523 406L629 396L553 305Z" fill="#205a7a" stroke="#FFFFFF"></path><path d="M596 215L710 224L633 78Z" fill="#0c2435" stroke="#FFFFFF"></path><path d="M629 396L677 326L553 305Z" fill="#246688" stroke="#FFFFFF"></path><path d="M117 291L207 345L265 257Z" fill="#112e42" stroke="#FFFFFF"></path><path d="M118 106L181 178L236 122Z" fill="#081a28" stroke="#FFFFFF"></path><path d="M236 122L181 178L265 257Z" fill="#15384f" stroke="#FFFFFF"></path><path d="M677 326L710 224L596 215Z" fill="#277297" stroke="#FFFFFF"></path><path d="M629 396L666 375L677 326Z" fill="#15384f" stroke="#FFFFFF"></path><path d="M799 112L745 148L813 164Z" fill="#112e42" stroke="#FFFFFF"></path><path d="M633 78L591 0L545 0Z" fill="#112e42" stroke="#FFFFFF"></path><path d="M149 412L280 451L272 405Z" fill="#00101c" stroke="#FFFFFF"></path><path d="M272 405L280 451L368 398Z" fill="#246688" stroke="#FFFFFF"></path><path d="M532 524L622 473L523 406Z" fill="#15384f" stroke="#FFFFFF"></path><path d="M629 396L622 473L666 375Z" fill="#246688" stroke="#FFFFFF"></path><path d="M532 524L523 406L414 459Z" fill="#0c2435" stroke="#FFFFFF"></path><path d="M350 0L226 0L302 50Z" fill="#112e42" stroke="#FFFFFF"></path><path d="M302 50L226 0L236 122Z" fill="#19435d" stroke="#FFFFFF"></path><path d="M454 600L532 524L414 459Z" fill="#297ea6" stroke="#FFFFFF"></path><path d="M745 148L710 224L813 164Z" fill="#19435d" stroke="#FFFFFF"></path><path d="M710 224L745 148L633 78Z" fill="#205a7a" stroke="#FFFFFF"></path><path d="M633 78L706 0L591 0Z" fill="#15384f" stroke="#FFFFFF"></path><path d="M181 178L117 291L265 257Z" fill="#00101c" stroke="#FFFFFF"></path><path d="M207 345L149 412L272 405Z" fill="#0c2435" stroke="#FFFFFF"></path><path d="M67 186L117 291L181 178Z" fill="#1d4e6b" stroke="#FFFFFF"></path><path d="M226 0L118 106L236 122Z" fill="#246688" stroke="#FFFFFF"></path><path d="M117 291L149 412L207 345Z" fill="#19435d" stroke="#FFFFFF"></path><path d="M745 148L706 0L633 78Z" fill="#1d4e6b" stroke="#FFFFFF"></path><path d="M622 473L673 506L666 375Z" fill="#19435d" stroke="#FFFFFF"></path><path d="M817 331L710 224L677 326Z" fill="#1d4e6b" stroke="#FFFFFF"></path><path d="M634 600L673 506L622 473Z" fill="#0c2435" stroke="#FFFFFF"></path><path d="M380 600L454 600L414 459Z" fill="#0c2435" stroke="#FFFFFF"></path><path d="M532 524L634 600L622 473Z" fill="#246688" stroke="#FFFFFF"></path><path d="M380 600L414 459L280 451Z" fill="#112e42" stroke="#FFFFFF"></path><path d="M118 106L67 186L181 178Z" fill="#205a7a" stroke="#FFFFFF"></path><path d="M76 465L134 446L149 412Z" fill="#277297" stroke="#FFFFFF"></path><path d="M76 465L149 412L0 389Z" fill="#277297" stroke="#FFFFFF"></path><path d="M149 412L211 531L280 451Z" fill="#0c2435" stroke="#FFFFFF"></path><path d="M745 148L799 112L706 0Z" fill="#0c2435" stroke="#FFFFFF"></path><path d="M813 164L710 224L817 331Z" fill="#19435d" stroke="#FFFFFF"></path><path d="M258 600L380 600L280 451Z" fill="#277297" stroke="#FFFFFF"></path><path d="M769 420L677 326L666 375Z" fill="#19435d" stroke="#FFFFFF"></path><path d="M134 446L211 531L149 412Z" fill="#277297" stroke="#FFFFFF"></path><path d="M673 506L769 420L666 375Z" fill="#081a28" stroke="#FFFFFF"></path><path d="M769 420L817 331L677 326Z" fill="#0c2435" stroke="#FFFFFF"></path><path d="M220 600L258 600L211 531Z" fill="#0c2435" stroke="#FFFFFF"></path><path d="M211 531L258 600L280 451Z" fill="#205a7a" stroke="#FFFFFF"></path><path d="M0 61L0 201L67 186Z" fill="#00101c" stroke="#FFFFFF"></path><path d="M226 0L88 0L118 106Z" fill="#297ea6" stroke="#FFFFFF"></path><path d="M781 600L851 468L769 420Z" fill="#15384f" stroke="#FFFFFF"></path><path d="M454 600L634 600L532 524Z" fill="#277297" stroke="#FFFFFF"></path><path d="M50 600L220 600L211 531Z" fill="#00101c" stroke="#FFFFFF"></path><path d="M0 389L149 412L117 291Z" fill="#246688" stroke="#FFFFFF"></path><path d="M134 446L76 465L211 531Z" fill="#277297" stroke="#FFFFFF"></path><path d="M0 61L67 186L118 106Z" fill="#00101c" stroke="#FFFFFF"></path><path d="M67 186L0 289L117 291Z" fill="#277297" stroke="#FFFFFF"></path><path d="M0 201L0 289L67 186Z" fill="#297ea6" stroke="#FFFFFF"></path><path d="M900 0L823 0L799 112Z" fill="#112e42" stroke="#FFFFFF"></path><path d="M799 112L823 0L706 0Z" fill="#1d4e6b" stroke="#FFFFFF"></path><path d="M900 138L799 112L813 164Z" fill="#081a28" stroke="#FFFFFF"></path><path d="M900 400L900 274L817 331Z" fill="#15384f" stroke="#FFFFFF"></path><path d="M817 331L900 274L813 164Z" fill="#277297" stroke="#FFFFFF"></path><path d="M900 400L817 331L769 420Z" fill="#15384f" stroke="#FFFFFF"></path><path d="M900 274L900 158L813 164Z" fill="#277297" stroke="#FFFFFF"></path><path d="M0 289L0 389L117 291Z" fill="#246688" stroke="#FFFFFF"></path><path d="M900 158L900 138L813 164Z" fill="#297ea6" stroke="#FFFFFF"></path><path d="M88 0L0 61L118 106Z" fill="#19435d" stroke="#FFFFFF"></path><path d="M781 600L769 420L673 506Z" fill="#19435d" stroke="#FFFFFF"></path><path d="M634 600L737 600L673 506Z" fill="#297ea6" stroke="#FFFFFF"></path><path d="M851 468L900 400L769 420Z" fill="#297ea6" stroke="#FFFFFF"></path><path d="M88 0L0 0L0 61Z" fill="#0c2435" stroke="#FFFFFF"></path><path d="M737 600L781 600L673 506Z" fill="#081a28" stroke="#FFFFFF"></path><path d="M851 468L900 475L900 400Z" fill="#00101c" stroke="#FFFFFF"></path><path d="M900 138L900 0L799 112Z" fill="#15384f" stroke="#FFFFFF"></path><path d="M900 600L900 475L851 468Z" fill="#297ea6" stroke="#FFFFFF"></path><path d="M76 465L50 600L211 531Z" fill="#246688" stroke="#FFFFFF"></path><path d="M0 544L50 600L76 465Z" fill="#297ea6" stroke="#FFFFFF"></path><path d="M0 389L0 544L76 465Z" fill="#246688" stroke="#FFFFFF"></path><path d="M0 544L0 600L50 600Z" fill="#15384f" stroke="#FFFFFF"></path><path d="M781 600L900 600L851 468Z" fill="#15384f" stroke="#FFFFFF"></path></g></svg>