<svg id="visual" viewBox="0 0 900 600" width="900" height="600" xmlns="http://www.w3.org/2000/svg" xmlns:xlink="http://www.w3.org/1999/xlink" version="1.1"><path d="M0 103L21.5 104.3C43 105.7 86 108.3 128.8 111.8C171.7 115.3 214.3 119.7 257.2 120.2C300 120.7 343 117.3 385.8 113.7C428.7 110 471.3 106 514.2 107.3C557 108.7 600 115.3 642.8 122.2C685.7 129 728.3 136 771.2 131.8C814 127.7 857 112.3 878.5 104.7L900 97L900 0L878.5 0C857 0 814 0 771.2 0C728.3 0 685.7 0 642.8 0C600 0 557 0 514.2 0C471.3 0 428.7 0 385.8 0C343 0 300 0 257.2 0C214.3 0 171.7 0 128.8 0C86 0 43 0 21.5 0L0 0Z" fill="#9ecae1"></path><path d="M0 84L21.5 81.8C43 79.7 86 75.3 128.8 75.8C171.7 76.3 214.3 81.7 257.2 80.8C300 80 343 73 385.8 69C428.7 65 471.3 64 514.2 67.8C557 71.7 600 80.3 642.8 88.7C685.7 97 728.3 105 771.2 101C814 97 857 81 878.5 73L900 65L900 0L878.5 0C857 0 814 0 771.2 0C728.3 0 685.7 0 642.8 0C600 0 557 0 514.2 0C471.3 0 428.7 0 385.8 0C343 0 300 0 257.2 0C214.3 0 171.7 0 128.8 0C86 0 43 0 21.5 0L0 0Z" fill="#68a2cc"></path><path d="M0 72L21.5 66.5C43 61 86 50 128.8 51.2C171.7 52.3 214.3 65.7 257.2 70.5C300 75.3 343 71.7 385.8 68.2C428.7 64.7 471.3 61.3 514.2 61.8C557 62.3 600 66.7 642.8 67.2C685.7 67.7 728.3 64.3 771.2 65.7C814 67 857 73 878.5 76L900 79L900 0L878.5 0C857 0 814 0 771.2 0C728.3 0 685.7 0 642.8 0C600 0 557 0 514.2 0C471.3 0 428.7 0 385.8 0C343 0 300 0 257.2 0C214.3 0 171.7 0 128.8 0C86 0 43 0 21.5 0L0 0Z" fill="#377ab6"></path><path d="M0 45L21.5 44.2C43 43.3 86 41.7 128.8 42.8C171.7 44 214.3 48 257.2 48.8C300 49.7 343 47.3 385.8 41.7C428.7 36 471.3 27 514.2 27.3C557 27.7 600 37.3 642.8 41.7C685.7 46 728.3 45 771.2 44C814 43 857 42 878.5 41.5L900 41L900 0L878.5 0C857 0 814 0 771.2 0C728.3 0 685.7 0 642.8 0C600 0 557 0 514.2 0C471.3 0 428.7 0 385.8 0C343 0 300 0 257.2 0C214.3 0 171.7 0 128.8 0C86 0 43 0 21.5 0L0 0Z" fill="#08519c"></path></svg>