<svg id="visual" viewBox="0 0 960 540" width="960" height="540" xmlns="http://www.w3.org/2000/svg" xmlns:xlink="http://www.w3.org/1999/xlink" version="1.1"><path d="M882 540L883.7 533.5C885.3 527 888.7 514 887.2 501.2C885.7 488.3 879.3 475.7 879.3 462.8C879.3 450 885.7 437 888.8 424.2C892 411.3 892 398.7 888.8 385.8C885.7 373 879.3 360 879.3 347.2C879.3 334.3 885.7 321.7 887.2 308.8C888.7 296 885.3 283 886.8 270C888.3 257 894.7 244 896.3 231.2C898 218.3 895 205.7 895 192.8C895 180 898 167 899.5 154.2C901 141.3 901 128.7 899.5 115.8C898 103 895 90 890.3 77.2C885.7 64.3 879.3 51.7 879.3 38.8C879.3 26 885.7 13 888.8 6.5L892 0L960 0L960 6.5C960 13 960 26 960 38.8C960 51.7 960 64.3 960 77.2C960 90 960 103 960 115.8C960 128.7 960 141.3 960 154.2C960 167 960 180 960 192.8C960 205.7 960 218.3 960 231.2C960 244 960 257 960 270C960 283 960 296 960 308.8C960 321.7 960 334.3 960 347.2C960 360 960 373 960 385.8C960 398.7 960 411.3 960 424.2C960 437 960 450 960 462.8C960 475.7 960 488.3 960 501.2C960 514 960 527 960 533.5L960 540Z" fill="#004cbb"></path><path d="M844 540L845.5 533.5C847 527 850 514 848.3 501.2C846.7 488.3 840.3 475.7 840.3 462.8C840.3 450 846.7 437 848.3 424.2C850 411.3 847 398.7 842.3 385.8C837.7 373 831.3 360 831.3 347.2C831.3 334.3 837.7 321.7 840.8 308.8C844 296 844 283 847.2 270C850.3 257 856.7 244 858.2 231.2C859.7 218.3 856.3 205.7 856.3 192.8C856.3 180 859.7 167 859.7 154.2C859.7 141.3 856.3 128.7 853.2 115.8C850 103 847 90 842.3 77.2C837.7 64.3 831.3 51.7 832.8 38.8C834.3 26 843.7 13 848.3 6.5L853 0L893 0L889.8 6.5C886.7 13 880.3 26 880.3 38.8C880.3 51.7 886.7 64.3 891.3 77.2C896 90 899 103 900.5 115.8C902 128.7 902 141.3 900.5 154.2C899 167 896 180 896 192.8C896 205.7 899 218.3 897.3 231.2C895.7 244 889.3 257 887.8 270C886.3 283 889.7 296 888.2 308.8C886.7 321.7 880.3 334.3 880.3 347.2C880.3 360 886.7 373 889.8 385.8C893 398.7 893 411.3 889.8 424.2C886.7 437 880.3 450 880.3 462.8C880.3 475.7 886.7 488.3 888.2 501.2C889.7 514 886.3 527 884.7 533.5L883 540Z" fill="#0058d9"></path><path d="M681 540L679.3 533.5C677.7 527 674.3 514 666.3 501.2C658.3 488.3 645.7 475.7 647.3 462.8C649 450 665 437 677.7 424.2C690.3 411.3 699.7 398.7 696.3 385.8C693 373 677 360 664.3 347.2C651.7 334.3 642.3 321.7 647.2 308.8C652 296 671 283 675.7 270C680.3 257 670.7 244 670.7 231.2C670.7 218.3 680.3 205.7 677.2 192.8C674 180 658 167 654.8 154.2C651.7 141.3 661.3 128.7 669.3 115.8C677.3 103 683.7 90 680.5 77.2C677.3 64.3 664.7 51.7 659.8 38.8C655 26 658 13 659.5 6.5L661 0L854 0L849.3 6.5C844.7 13 835.3 26 833.8 38.8C832.3 51.7 838.7 64.3 843.3 77.2C848 90 851 103 854.2 115.8C857.3 128.7 860.7 141.3 860.7 154.2C860.7 167 857.3 180 857.3 192.8C857.3 205.7 860.7 218.3 859.2 231.2C857.7 244 851.3 257 848.2 270C845 283 845 296 841.8 308.8C838.7 321.7 832.3 334.3 832.3 347.2C832.3 360 838.7 373 843.3 385.8C848 398.7 851 411.3 849.3 424.2C847.7 437 841.3 450 841.3 462.8C841.3 475.7 847.7 488.3 849.3 501.2C851 514 848 527 846.5 533.5L845 540Z" fill="#0064f9"></path><path d="M652 540L648.8 533.5C645.7 527 639.3 514 629.7 501.2C620 488.3 607 475.7 610.2 462.8C613.3 450 632.7 437 647.2 424.2C661.7 411.3 671.3 398.7 668.2 385.8C665 373 649 360 634.5 347.2C620 334.3 607 321.7 611.7 308.8C616.3 296 638.7 283 643.5 270C648.3 257 635.7 244 635.7 231.2C635.7 218.3 648.3 205.7 645.2 192.8C642 180 623 167 619.8 154.2C616.7 141.3 629.3 128.7 637.3 115.8C645.3 103 648.7 90 645.5 77.2C642.3 64.3 632.7 51.7 629.5 38.8C626.3 26 629.7 13 631.3 6.5L633 0L662 0L660.5 6.5C659 13 656 26 660.8 38.8C665.7 51.7 678.3 64.3 681.5 77.2C684.7 90 678.3 103 670.3 115.8C662.3 128.7 652.7 141.3 655.8 154.2C659 167 675 180 678.2 192.8C681.3 205.7 671.7 218.3 671.7 231.2C671.7 244 681.3 257 676.7 270C672 283 653 296 648.2 308.8C643.3 321.7 652.7 334.3 665.3 347.2C678 360 694 373 697.3 385.8C700.7 398.7 691.3 411.3 678.7 424.2C666 437 650 450 648.3 462.8C646.7 475.7 659.3 488.3 667.3 501.2C675.3 514 678.7 527 680.3 533.5L682 540Z" fill="#3079ff"></path><path d="M613 540L609.8 533.5C606.7 527 600.3 514 590.8 501.2C581.3 488.3 568.7 475.7 571.8 462.8C575 450 594 437 608.3 424.2C622.7 411.3 632.3 398.7 629.2 385.8C626 373 610 360 595.7 347.2C581.3 334.3 568.7 321.7 571.8 308.8C575 296 594 283 598.8 270C603.7 257 594.3 244 594.3 231.2C594.3 218.3 603.7 205.7 598.8 192.8C594 180 575 167 571.8 154.2C568.7 141.3 581.3 128.7 589.3 115.8C597.3 103 600.7 90 597.5 77.2C594.3 64.3 584.7 51.7 583 38.8C581.3 26 587.7 13 590.8 6.5L594 0L634 0L632.3 6.5C630.7 13 627.3 26 630.5 38.8C633.7 51.7 643.3 64.3 646.5 77.2C649.7 90 646.3 103 638.3 115.8C630.3 128.7 617.7 141.3 620.8 154.2C624 167 643 180 646.2 192.8C649.3 205.7 636.7 218.3 636.7 231.2C636.7 244 649.3 257 644.5 270C639.7 283 617.3 296 612.7 308.8C608 321.7 621 334.3 635.5 347.2C650 360 666 373 669.2 385.8C672.3 398.7 662.7 411.3 648.2 424.2C633.7 437 614.3 450 611.2 462.8C608 475.7 621 488.3 630.7 501.2C640.3 514 646.7 527 649.8 533.5L653 540Z" fill="#548fff"></path><path d="M585 540L581.7 533.5C578.3 527 571.7 514 562 501.2C552.3 488.3 539.7 475.7 543 462.8C546.3 450 565.7 437 578.5 424.2C591.3 411.3 597.7 398.7 592.8 385.8C588 373 572 360 559.2 347.2C546.3 334.3 536.7 321.7 541.5 308.8C546.3 296 565.7 283 570.5 270C575.3 257 565.7 244 564 231.2C562.3 218.3 568.7 205.7 563.8 192.8C559 180 543 167 539.8 154.2C536.7 141.3 546.3 128.7 554.3 115.8C562.3 103 568.7 90 567 77.2C565.3 64.3 555.7 51.7 552.5 38.8C549.3 26 552.7 13 554.3 6.5L556 0L595 0L591.8 6.5C588.7 13 582.3 26 584 38.8C585.7 51.7 595.3 64.3 598.5 77.2C601.7 90 598.3 103 590.3 115.8C582.3 128.7 569.7 141.3 572.8 154.2C576 167 595 180 599.8 192.8C604.7 205.7 595.3 218.3 595.3 231.2C595.3 244 604.7 257 599.8 270C595 283 576 296 572.8 308.8C569.7 321.7 582.3 334.3 596.7 347.2C611 360 627 373 630.2 385.8C633.3 398.7 623.7 411.3 609.3 424.2C595 437 576 450 572.8 462.8C569.7 475.7 582.3 488.3 591.8 501.2C601.3 514 607.7 527 610.8 533.5L614 540Z" fill="#6198ff"></path><path d="M354 540L350.8 533.5C347.7 527 341.3 514 338.2 501.2C335 488.3 335 475.7 339.8 462.8C344.7 450 354.3 437 362.3 424.2C370.3 411.3 376.7 398.7 378.2 385.8C379.7 373 376.3 360 371.5 347.2C366.7 334.3 360.3 321.7 358.8 308.8C357.3 296 360.7 283 362.3 270C364 257 364 244 359.2 231.2C354.3 218.3 344.7 205.7 343 192.8C341.3 180 347.7 167 347.7 154.2C347.7 141.3 341.3 128.7 338.2 115.8C335 103 335 90 339.8 77.2C344.7 64.3 354.3 51.7 362.3 38.8C370.3 26 376.7 13 379.8 6.5L383 0L557 0L555.3 6.5C553.7 13 550.3 26 553.5 38.8C556.7 51.7 566.3 64.3 568 77.2C569.7 90 563.3 103 555.3 115.8C547.3 128.7 537.7 141.3 540.8 154.2C544 167 560 180 564.8 192.8C569.7 205.7 563.3 218.3 565 231.2C566.7 244 576.3 257 571.5 270C566.7 283 547.3 296 542.5 308.8C537.7 321.7 547.3 334.3 560.2 347.2C573 360 589 373 593.8 385.8C598.7 398.7 592.3 411.3 579.5 424.2C566.7 437 547.3 450 544 462.8C540.7 475.7 553.3 488.3 563 501.2C572.7 514 579.3 527 582.7 533.5L586 540Z" fill="#6198ff"></path><path d="M297 540L295.3 533.5C293.7 527 290.3 514 287 501.2C283.7 488.3 280.3 475.7 282 462.8C283.7 450 290.3 437 300 424.2C309.7 411.3 322.3 398.7 327 385.8C331.7 373 328.3 360 322 347.2C315.7 334.3 306.3 321.7 304.8 308.8C303.3 296 309.7 283 312.8 270C316 257 316 244 308 231.2C300 218.3 284 205.7 282.3 192.8C280.7 180 293.3 167 293.3 154.2C293.3 141.3 280.7 128.7 277.5 115.8C274.3 103 280.7 90 283.8 77.2C287 64.3 287 51.7 291.8 38.8C296.7 26 306.3 13 311.2 6.5L316 0L384 0L380.8 6.5C377.7 13 371.3 26 363.3 38.8C355.3 51.7 345.7 64.3 340.8 77.2C336 90 336 103 339.2 115.8C342.3 128.7 348.7 141.3 348.7 154.2C348.7 167 342.3 180 344 192.8C345.7 205.7 355.3 218.3 360.2 231.2C365 244 365 257 363.3 270C361.7 283 358.3 296 359.8 308.8C361.3 321.7 367.7 334.3 372.5 347.2C377.3 360 380.7 373 379.2 385.8C377.7 398.7 371.3 411.3 363.3 424.2C355.3 437 345.7 450 340.8 462.8C336 475.7 336 488.3 339.2 501.2C342.3 514 348.7 527 351.8 533.5L355 540Z" fill="#548fff"></path><path d="M201 540L199.3 533.5C197.7 527 194.3 514 191 501.2C187.7 488.3 184.3 475.7 181.2 462.8C178 450 175 437 178.3 424.2C181.7 411.3 191.3 398.7 196.2 385.8C201 373 201 360 201 347.2C201 334.3 201 321.7 202.5 308.8C204 296 207 283 208.5 270C210 257 210 244 203.7 231.2C197.3 218.3 184.7 205.7 183.2 192.8C181.7 180 191.3 167 191.3 154.2C191.3 141.3 181.7 128.7 180 115.8C178.3 103 184.7 90 184.7 77.2C184.7 64.3 178.3 51.7 176.7 38.8C175 26 178 13 179.5 6.5L181 0L317 0L312.2 6.5C307.3 13 297.7 26 292.8 38.8C288 51.7 288 64.3 284.8 77.2C281.7 90 275.3 103 278.5 115.8C281.7 128.7 294.3 141.3 294.3 154.2C294.3 167 281.7 180 283.3 192.8C285 205.7 301 218.3 309 231.2C317 244 317 257 313.8 270C310.7 283 304.3 296 305.8 308.8C307.3 321.7 316.7 334.3 323 347.2C329.3 360 332.7 373 328 385.8C323.3 398.7 310.7 411.3 301 424.2C291.3 437 284.7 450 283 462.8C281.3 475.7 284.7 488.3 288 501.2C291.3 514 294.7 527 296.3 533.5L298 540Z" fill="#3079ff"></path><path d="M153 540L148.2 533.5C143.3 527 133.7 514 130.3 501.2C127 488.3 130 475.7 128.3 462.8C126.7 450 120.3 437 123.7 424.2C127 411.3 140 398.7 144.8 385.8C149.7 373 146.3 360 144.7 347.2C143 334.3 143 321.7 143 308.8C143 296 143 283 143 270C143 257 143 244 139.8 231.2C136.7 218.3 130.3 205.7 132 192.8C133.7 180 143.3 167 143.3 154.2C143.3 141.3 133.7 128.7 132 115.8C130.3 103 136.7 90 136.7 77.2C136.7 64.3 130.3 51.7 128.7 38.8C127 26 130 13 131.5 6.5L133 0L182 0L180.5 6.5C179 13 176 26 177.7 38.8C179.3 51.7 185.7 64.3 185.7 77.2C185.7 90 179.3 103 181 115.8C182.7 128.7 192.3 141.3 192.3 154.2C192.3 167 182.7 180 184.2 192.8C185.7 205.7 198.3 218.3 204.7 231.2C211 244 211 257 209.5 270C208 283 205 296 203.5 308.8C202 321.7 202 334.3 202 347.2C202 360 202 373 197.2 385.8C192.3 398.7 182.7 411.3 179.3 424.2C176 437 179 450 182.2 462.8C185.3 475.7 188.7 488.3 192 501.2C195.3 514 198.7 527 200.3 533.5L202 540Z" fill="#0064f9"></path><path d="M95 540L93.3 533.5C91.7 527 88.3 514 85.2 501.2C82 488.3 79 475.7 77.5 462.8C76 450 76 437 79.2 424.2C82.3 411.3 88.7 398.7 93.5 385.8C98.3 373 101.7 360 100 347.2C98.3 334.3 91.7 321.7 90 308.8C88.3 296 91.7 283 93.3 270C95 257 95 244 91.8 231.2C88.7 218.3 82.3 205.7 84 192.8C85.7 180 95.3 167 95.3 154.2C95.3 141.3 85.7 128.7 82.3 115.8C79 103 82 90 83.5 77.2C85 64.3 85 51.7 86.7 38.8C88.3 26 91.7 13 93.3 6.5L95 0L134 0L132.5 6.5C131 13 128 26 129.7 38.8C131.3 51.7 137.7 64.3 137.7 77.2C137.7 90 131.3 103 133 115.8C134.7 128.7 144.3 141.3 144.3 154.2C144.3 167 134.7 180 133 192.8C131.3 205.7 137.7 218.3 140.8 231.2C144 244 144 257 144 270C144 283 144 296 144 308.8C144 321.7 144 334.3 145.7 347.2C147.3 360 150.7 373 145.8 385.8C141 398.7 128 411.3 124.7 424.2C121.3 437 127.7 450 129.3 462.8C131 475.7 128 488.3 131.3 501.2C134.7 514 144.3 527 149.2 533.5L154 540Z" fill="#0058d9"></path><path d="M0 540L0 533.5C0 527 0 514 0 501.2C0 488.3 0 475.7 0 462.8C0 450 0 437 0 424.2C0 411.3 0 398.7 0 385.8C0 373 0 360 0 347.2C0 334.3 0 321.7 0 308.8C0 296 0 283 0 270C0 257 0 244 0 231.2C0 218.3 0 205.7 0 192.8C0 180 0 167 0 154.2C0 141.3 0 128.7 0 115.8C0 103 0 90 0 77.2C0 64.3 0 51.7 0 38.8C0 26 0 13 0 6.5L0 0L96 0L94.3 6.5C92.7 13 89.3 26 87.7 38.8C86 51.7 86 64.3 84.5 77.2C83 90 80 103 83.3 115.8C86.7 128.7 96.3 141.3 96.3 154.2C96.3 167 86.7 180 85 192.8C83.3 205.7 89.7 218.3 92.8 231.2C96 244 96 257 94.3 270C92.7 283 89.3 296 91 308.8C92.7 321.7 99.3 334.3 101 347.2C102.7 360 99.3 373 94.5 385.8C89.7 398.7 83.3 411.3 80.2 424.2C77 437 77 450 78.5 462.8C80 475.7 83 488.3 86.2 501.2C89.3 514 92.7 527 94.3 533.5L96 540Z" fill="#004cbb"></path></svg>